<svg width="32" height="32" viewBox="0 0 32 32" fill="none" xmlns="http://www.w3.org/2000/svg">
<circle cx="16" cy="16.0029" r="16" fill="#E84142"/>
<path fill-rule="evenodd" clip-rule="evenodd" d="M12.0031 21.6157H9.26571C8.69052 21.6157 8.40636 21.6157 8.23309 21.5048C8.046 21.3835 7.93163 21.1826 7.91777 20.9608C7.90739 20.7564 8.04944 20.5069 8.33359 20.0079L15.0926 8.09426C15.3802 7.58835 15.5257 7.33542 15.7094 7.24185C15.9069 7.14139 16.1425 7.14139 16.34 7.24185C16.5237 7.33542 16.6692 7.58835 16.9568 8.09426L18.3463 10.5198L18.3534 10.5322C18.664 11.0749 18.8215 11.3502 18.8903 11.639C18.9665 11.9543 18.9665 12.287 18.8903 12.6023C18.821 12.8934 18.6651 13.1706 18.3497 13.7216L14.7994 19.9975L14.7902 20.0136C14.4775 20.5608 14.3191 20.8381 14.0995 21.0474C13.8604 21.2761 13.5728 21.4424 13.2575 21.536C12.9699 21.6157 12.6476 21.6157 12.0031 21.6157ZM18.9159 21.616H22.8384C23.4171 21.616 23.7081 21.616 23.8814 21.5017C24.0685 21.3804 24.1863 21.1759 24.1967 20.9542C24.2068 20.7565 24.0678 20.5166 23.7954 20.0467C23.7861 20.0307 23.7766 20.0144 23.7671 19.9978L21.8024 16.6367L21.78 16.5989C21.5039 16.132 21.3645 15.8962 21.1856 15.8051C20.9881 15.7046 20.7559 15.7046 20.5584 15.8051C20.3782 15.8986 20.2327 16.1447 19.9451 16.6402L17.9873 20.0013L17.9806 20.0129C17.694 20.5076 17.5508 20.7548 17.5611 20.9577C17.575 21.1794 17.6893 21.3839 17.8764 21.5051C18.0462 21.616 18.3373 21.616 18.9159 21.616Z" fill="white"/>
</svg>
