<svg width="32" height="32" viewBox="0 0 32 32" fill="none" xmlns="http://www.w3.org/2000/svg">
<mask id="mask0_636_1137" style="mask-type:luminance" maskUnits="userSpaceOnUse" x="0" y="0" width="32" height="33">
<circle cx="16" cy="16.0029" r="16" fill="white"/>
</mask>
<g mask="url(#mask0_636_1137)">
<path fill-rule="evenodd" clip-rule="evenodd" d="M16 16.003L-6.63043 15.8634L-6.60995 15.0314L16 16.003Z" fill="#FEFEFF"/>
<path fill-rule="evenodd" clip-rule="evenodd" d="M16 16.0029L-6.61377 15.1697L-6.57921 14.4759L16 16.0029Z" fill="#FDFEFF"/>
<path fill-rule="evenodd" clip-rule="evenodd" d="M16 16.003L-6.58691 14.6155L-6.53571 13.923L16 16.003Z" fill="#FCFDFF"/>
<path fill-rule="evenodd" clip-rule="evenodd" d="M16 16.003L-6.54596 14.0612L-6.47812 13.37L16 16.003Z" fill="#FBFCFF"/>
<path fill-rule="evenodd" clip-rule="evenodd" d="M16 16.0029L-6.49091 13.5082L-6.40643 12.8196L16 16.0029Z" fill="#FAFCFF"/>
<path fill-rule="evenodd" clip-rule="evenodd" d="M15.9999 16.003L-6.4231 12.9579L-6.32198 12.2705L15.9999 16.003Z" fill="#F9FBFF"/>
<path fill-rule="evenodd" clip-rule="evenodd" d="M16 16.003L-6.34113 12.4075L-6.22337 11.7239L16 16.003Z" fill="#F8FAFF"/>
<path fill-rule="evenodd" clip-rule="evenodd" d="M15.9999 16.003L-6.24646 11.8609L-6.11206 11.1799L15.9999 16.003Z" fill="#F7FAFF"/>
<path fill-rule="evenodd" clip-rule="evenodd" d="M16 16.003L-6.13892 11.3169L-5.9866 10.6385L16 16.003Z" fill="#F6F9FF"/>
<path fill-rule="evenodd" clip-rule="evenodd" d="M15.9999 16.003L-6.01733 10.7742L-5.84837 10.1009L15.9999 16.003Z" fill="#F5F8FF"/>
<path fill-rule="evenodd" clip-rule="evenodd" d="M15.9999 16.003L-5.88165 10.2353L-5.69733 9.56586L15.9999 16.003Z" fill="#F4F8FF"/>
<path fill-rule="evenodd" clip-rule="evenodd" d="M16 16.003L-5.73444 9.70027L-5.5322 9.03595L16 16.003Z" fill="#F3F7FF"/>
<path fill-rule="evenodd" clip-rule="evenodd" d="M15.9999 16.0029L-5.57318 9.16903L-5.3543 8.50983L15.9999 16.0029Z" fill="#F2F6FF"/>
<path fill-rule="evenodd" clip-rule="evenodd" d="M16 16.003L-5.39905 8.64169L-5.16481 7.98761L16 16.003Z" fill="#F1F6FF"/>
<path fill-rule="evenodd" clip-rule="evenodd" d="M15.9999 16.0029L-5.21094 8.11814L-4.96134 7.47046L15.9999 16.0029Z" fill="#F0F5FF"/>
<path fill-rule="evenodd" clip-rule="evenodd" d="M16 16.003L-5.01123 7.59978L-4.74627 6.9585L16 16.003Z" fill="#EFF4FF"/>
<path fill-rule="evenodd" clip-rule="evenodd" d="M16 16.003L-4.79877 7.08648L-4.51717 6.45288L16 16.003Z" fill="#EEF3FF"/>
<path fill-rule="evenodd" clip-rule="evenodd" d="M16 16.003L-4.57349 6.57959L-4.27653 5.95239L16 16.003Z" fill="#EDF3FF"/>
<path fill-rule="evenodd" clip-rule="evenodd" d="M16 16.003L-4.33667 6.07783L-4.02435 5.45703L16 16.003Z" fill="#ECF2FF"/>
<path fill-rule="evenodd" clip-rule="evenodd" d="M15.9999 16.003L-4.0871 5.5812L-3.75942 4.96936L15.9999 16.003Z" fill="#EBF1FF"/>
<path fill-rule="evenodd" clip-rule="evenodd" d="M16 16.003L-3.82465 5.09226L-3.48289 4.48682L16 16.003Z" fill="#EAF1FF"/>
<path fill-rule="evenodd" clip-rule="evenodd" d="M15.9999 16.0029L-3.55078 4.60838L-3.19366 4.01318L15.9999 16.0029Z" fill="#E9F0FF"/>
<path fill-rule="evenodd" clip-rule="evenodd" d="M16 16.003L-3.26532 4.13226L-2.89412 3.54474L16 16.003Z" fill="#E8EFFF"/>
<path fill-rule="evenodd" clip-rule="evenodd" d="M16 16.003L-2.96832 3.66248L-2.58176 3.08521L16 16.003Z" fill="#E7EFFF"/>
<path fill-rule="evenodd" clip-rule="evenodd" d="M16 16.003L-2.65985 3.2004L-2.26049 2.63336L16 16.003Z" fill="#E6EEFF"/>
<path fill-rule="evenodd" clip-rule="evenodd" d="M16 16.003L-2.33984 2.74729L-1.9264 2.18921L16 16.003Z" fill="#E5EDFF"/>
<path fill-rule="evenodd" clip-rule="evenodd" d="M16 16.003L-2.00964 2.30059L-1.58212 1.75275L16 16.003Z" fill="#E4EDFF"/>
<path fill-rule="evenodd" clip-rule="evenodd" d="M16 16.003L-1.66785 1.8628L-1.22753 1.32648L16 16.003Z" fill="#E3ECFF"/>
<path fill-rule="evenodd" clip-rule="evenodd" d="M16 16.0029L-1.31458 1.43398L-0.861455 0.907898L16 16.0029Z" fill="#E2EBFF"/>
<path fill-rule="evenodd" clip-rule="evenodd" d="M16 16.0029L-0.952332 1.01285L-0.486412 0.498291L16 16.0029Z" fill="#E1EBFF"/>
<path fill-rule="evenodd" clip-rule="evenodd" d="M15.9999 16.0029L-0.579895 0.601978L-0.101175 0.098938L15.9999 16.0029Z" fill="#E0EAFF"/>
<path fill-rule="evenodd" clip-rule="evenodd" d="M16 16.003L-0.197144 0.200077L0.294376 -0.291443L16 16.003Z" fill="#DFE9FF"/>
<path fill-rule="evenodd" clip-rule="evenodd" d="M16 16.003L0.197083 -0.19413L0.698842 -0.67157L16 16.003Z" fill="#DEE9FF"/>
<path fill-rule="evenodd" clip-rule="evenodd" d="M16 16.003L0.598999 -0.576866L1.11356 -1.04279L16 16.003Z" fill="#DDE8FF"/>
<path fill-rule="evenodd" clip-rule="evenodd" d="M16 16.003L1.00989 -0.949346L1.53597 -1.40247L16 16.003Z" fill="#DCE7FF"/>
<path fill-rule="evenodd" clip-rule="evenodd" d="M16 16.003L1.43103 -1.31157L1.96735 -1.75189L16 16.003Z" fill="#DBE7FF"/>
<path fill-rule="evenodd" clip-rule="evenodd" d="M16 16.003L1.8598 -1.66489L2.40764 -2.09113L16 16.003Z" fill="#DAE6FF"/>
<path fill-rule="evenodd" clip-rule="evenodd" d="M15.9999 16.0029L2.29755 -2.00666L2.85563 -2.4201L15.9999 16.0029Z" fill="#D9E5FF"/>
<path fill-rule="evenodd" clip-rule="evenodd" d="M15.9999 16.0029L2.74426 -2.33691L3.3113 -2.73627L15.9999 16.0029Z" fill="#D8E5FF"/>
<path fill-rule="evenodd" clip-rule="evenodd" d="M15.9999 16.0029L3.19739 -2.6569L3.77467 -3.04218L15.9999 16.0029Z" fill="#D7E4FF"/>
<path fill-rule="evenodd" clip-rule="evenodd" d="M16 16.003L3.65948 -2.96535L4.247 -3.33655L16 16.003Z" fill="#D6E3FF"/>
<path fill-rule="evenodd" clip-rule="evenodd" d="M16 16.003L4.12927 -3.26233L4.72447 -3.61945L16 16.003Z" fill="#D5E3FF"/>
<path fill-rule="evenodd" clip-rule="evenodd" d="M16 16.003L4.60541 -3.54777L5.20957 -3.88953L16 16.003Z" fill="#D4E2FF"/>
<path fill-rule="evenodd" clip-rule="evenodd" d="M16 16.003L5.08923 -3.82167L5.70107 -4.14935L16 16.003Z" fill="#D3E1FF"/>
<path fill-rule="evenodd" clip-rule="evenodd" d="M15.9999 16.0029L5.57819 -4.0841L6.19899 -4.39514L15.9999 16.0029Z" fill="#D2E0FF"/>
<path fill-rule="evenodd" clip-rule="evenodd" d="M15.9999 16.003L6.07483 -4.33365L6.70203 -4.62933L15.9999 16.003Z" fill="#D1E0FF"/>
<path fill-rule="evenodd" clip-rule="evenodd" d="M16 16.003L6.5766 -4.57045L7.21148 -4.85205L16 16.003Z" fill="#D0DFFF"/>
<path fill-rule="evenodd" clip-rule="evenodd" d="M16 16.0029L7.0835 -4.79577L7.72606 -5.06201L16 16.0029Z" fill="#CFDEFF"/>
<path fill-rule="evenodd" clip-rule="evenodd" d="M15.9999 16.003L7.59674 -5.00821L8.2457 -5.25781L15.9999 16.003Z" fill="#CEDEFF"/>
<path fill-rule="evenodd" clip-rule="evenodd" d="M16 16.003L8.11517 -5.2079L8.76925 -5.44214L16 16.003Z" fill="#CDDDFF"/>
<path fill-rule="evenodd" clip-rule="evenodd" d="M16 16.0029L8.63867 -5.39611L9.29787 -5.61243L16 16.0029Z" fill="#CCDCFF"/>
<path fill-rule="evenodd" clip-rule="evenodd" d="M16 16.003L9.16608 -5.57016L9.8304 -5.77112L16 16.003Z" fill="#CBDCFF"/>
<path fill-rule="evenodd" clip-rule="evenodd" d="M16 16.003L9.69727 -5.73145L10.3667 -5.91577L16 16.003Z" fill="#CADBFF"/>
<path fill-rule="evenodd" clip-rule="evenodd" d="M16 16.003L10.2323 -5.87865L10.9056 -6.04761L16 16.003Z" fill="#C9DAFF"/>
<path fill-rule="evenodd" clip-rule="evenodd" d="M16 16.003L10.7712 -6.0143L11.4483 -6.16534L16 16.003Z" fill="#C8DAFF"/>
<path fill-rule="evenodd" clip-rule="evenodd" d="M16 16.003L11.3139 -6.13592L11.9936 -6.27032L16 16.003Z" fill="#C7D9FF"/>
<path fill-rule="evenodd" clip-rule="evenodd" d="M16 16.003L11.8579 -6.24345L12.5414 -6.36249L16 16.003Z" fill="#C6D8FF"/>
<path fill-rule="evenodd" clip-rule="evenodd" d="M15.9999 16.003L12.4044 -6.33815L13.0918 -6.44055L15.9999 16.003Z" fill="#C5D8FF"/>
<path fill-rule="evenodd" clip-rule="evenodd" d="M16 16.0029L12.9548 -6.4201L13.6435 -6.50458L16 16.0029Z" fill="#C4D7FF"/>
<path fill-rule="evenodd" clip-rule="evenodd" d="M16 16.0029L13.5052 -6.48795L14.1964 -6.55579L16 16.0029Z" fill="#C3D6FF"/>
<path fill-rule="evenodd" clip-rule="evenodd" d="M16 16.0029L14.0582 -6.54298L14.7507 -6.59418L16 16.0029Z" fill="#C2D6FF"/>
<path fill-rule="evenodd" clip-rule="evenodd" d="M15.9999 16.003L14.6124 -6.58391L15.3062 -6.61719L15.9999 16.003Z" fill="#C1D5FF"/>
<path fill-rule="evenodd" clip-rule="evenodd" d="M16 16.003L15.1667 -6.6108L15.8604 -6.62744L16 16.003Z" fill="#C0D4FF"/>
<path fill-rule="evenodd" clip-rule="evenodd" d="M16 16.003L15.7222 -6.62488H16.416L16 16.003Z" fill="#BFD4FF"/>
<path fill-rule="evenodd" clip-rule="evenodd" d="M16 16.003L16.2778 -6.62488L16.9715 -6.60696L16 16.003Z" fill="#BED3FF"/>
<path fill-rule="evenodd" clip-rule="evenodd" d="M16 16.003L16.8333 -6.61078L17.5258 -6.57622L16 16.003Z" fill="#BDD2FF"/>
<path fill-rule="evenodd" clip-rule="evenodd" d="M16 16.003L17.3875 -6.58392L18.08 -6.53272L16 16.003Z" fill="#BCD2FF"/>
<path fill-rule="evenodd" clip-rule="evenodd" d="M16 16.003L17.9418 -6.54297L18.633 -6.47513L16 16.003Z" fill="#BBD1FF"/>
<path fill-rule="evenodd" clip-rule="evenodd" d="M16 16.003L18.4934 -6.48792L19.1834 -6.40343L16 16.003Z" fill="#BAD0FF"/>
<path fill-rule="evenodd" clip-rule="evenodd" d="M16 16.0029L19.0451 -6.4201L19.7325 -6.31899L16 16.0029Z" fill="#B9D0FF"/>
<path fill-rule="evenodd" clip-rule="evenodd" d="M16 16.003L19.5942 -6.33813L20.279 -6.22038L16 16.003Z" fill="#B8CFFF"/>
<path fill-rule="evenodd" clip-rule="evenodd" d="M16 16.0029L20.1421 -6.24347L20.823 -6.10907L16 16.0029Z" fill="#B7CEFF"/>
<path fill-rule="evenodd" clip-rule="evenodd" d="M16 16.003L20.6861 -6.13593L21.3645 -5.98361L16 16.003Z" fill="#B6CDFF"/>
<path fill-rule="evenodd" clip-rule="evenodd" d="M16 16.0029L21.2288 -6.01434L21.9021 -5.84538L16 16.0029Z" fill="#B5CDFF"/>
<path fill-rule="evenodd" clip-rule="evenodd" d="M16 16.0029L21.7677 -5.87866L22.4358 -5.69434L16 16.0029Z" fill="#B4CCFF"/>
<path fill-rule="evenodd" clip-rule="evenodd" d="M16 16.003L22.3027 -5.73145L22.967 -5.52921L16 16.003Z" fill="#B3CBFF"/>
<path fill-rule="evenodd" clip-rule="evenodd" d="M16 16.003L22.8339 -5.57013L23.4931 -5.35125L16 16.003Z" fill="#B2CBFF"/>
<path fill-rule="evenodd" clip-rule="evenodd" d="M16 16.003L23.3613 -5.39606L24.0154 -5.16182L16 16.003Z" fill="#B1CAFF"/>
<path fill-rule="evenodd" clip-rule="evenodd" d="M16 16.0029L23.8848 -5.20795L24.5325 -4.95835L16 16.0029Z" fill="#B0C9FF"/>
<path fill-rule="evenodd" clip-rule="evenodd" d="M16 16.003L24.4019 -5.00824L25.0445 -4.74328L16 16.003Z" fill="#AFC9FF"/>
<path fill-rule="evenodd" clip-rule="evenodd" d="M16 16.0029L24.9152 -4.79578L25.5501 -4.51418L16 16.0029Z" fill="#AEC8FF"/>
<path fill-rule="evenodd" clip-rule="evenodd" d="M16 16.0029L25.4234 -4.5705L26.0506 -4.27354L16 16.0029Z" fill="#ADC7FF"/>
<path fill-rule="evenodd" clip-rule="evenodd" d="M16 16.003L25.9251 -4.33368L26.5459 -4.02136L16 16.003Z" fill="#ACC7FF"/>
<path fill-rule="evenodd" clip-rule="evenodd" d="M16 16.0029L26.4218 -4.08411L27.0336 -3.75643L16 16.0029Z" fill="#ABC6FF"/>
<path fill-rule="evenodd" clip-rule="evenodd" d="M16 16.003L26.9107 -3.82166L27.5162 -3.4799L16 16.003Z" fill="#AAC5FF"/>
<path fill-rule="evenodd" clip-rule="evenodd" d="M16 16.003L27.3946 -3.54773L27.9898 -3.19061L16 16.003Z" fill="#A9C5FF"/>
<path fill-rule="evenodd" clip-rule="evenodd" d="M16 16.003L27.8707 -3.26233L28.457 -2.89113L16 16.003Z" fill="#A8C4FF"/>
<path fill-rule="evenodd" clip-rule="evenodd" d="M16 16.003L28.3405 -2.96533L28.9178 -2.57877L16 16.003Z" fill="#A7C3FF"/>
<path fill-rule="evenodd" clip-rule="evenodd" d="M16 16.003L28.8026 -2.65686L29.3696 -2.2575L16 16.003Z" fill="#A6C3FF"/>
<path fill-rule="evenodd" clip-rule="evenodd" d="M16 16.003L29.2557 -2.33685L29.8138 -1.92341L16 16.003Z" fill="#A5C2FF"/>
<path fill-rule="evenodd" clip-rule="evenodd" d="M16 16.0029L29.7024 -2.00665L30.249 -1.57913L16 16.0029Z" fill="#A4C1FF"/>
<path fill-rule="evenodd" clip-rule="evenodd" d="M16 16.003L30.1402 -1.66486L30.6765 -1.22454L16 16.003Z" fill="#A3C1FF"/>
<path fill-rule="evenodd" clip-rule="evenodd" d="M16 16.003L30.569 -1.31158L31.095 -0.858465L16 16.003Z" fill="#A2C0FF"/>
<path fill-rule="evenodd" clip-rule="evenodd" d="M16 16.003L30.9901 -0.949341L31.5046 -0.483421L16 16.003Z" fill="#A1BFFF"/>
<path fill-rule="evenodd" clip-rule="evenodd" d="M16 16.0029L31.401 -0.576904L31.904 -0.0981843L16 16.0029Z" fill="#A0BFFF"/>
<path fill-rule="evenodd" clip-rule="evenodd" d="M16 16.003L31.8029 -0.194153L32.2944 0.297367L16 16.003Z" fill="#9FBEFF"/>
<path fill-rule="evenodd" clip-rule="evenodd" d="M16 16.003L32.1958 0.200073L32.6746 0.701833L16 16.003Z" fill="#9EBDFF"/>
<path fill-rule="evenodd" clip-rule="evenodd" d="M16 16.0029L32.5798 0.60199L33.0458 1.11655L16 16.0029Z" fill="#9DBDFF"/>
<path fill-rule="evenodd" clip-rule="evenodd" d="M16 16.003L32.9523 1.01288L33.4054 1.53896L16 16.003Z" fill="#9CBCFF"/>
<path fill-rule="evenodd" clip-rule="evenodd" d="M16 16.003L33.3146 1.43402L33.7549 1.97034L16 16.003Z" fill="#9BBBFF"/>
<path fill-rule="evenodd" clip-rule="evenodd" d="M16 16.003L33.6678 1.86279L34.0941 2.41063L16 16.003Z" fill="#9ABAFF"/>
<path fill-rule="evenodd" clip-rule="evenodd" d="M16 16.0029L34.0096 2.30054L34.423 2.85862L16 16.0029Z" fill="#99BAFF"/>
<path fill-rule="evenodd" clip-rule="evenodd" d="M16 16.0029L34.3398 2.74725L34.7392 3.31429L16 16.0029Z" fill="#98B9FF"/>
<path fill-rule="evenodd" clip-rule="evenodd" d="M16 16.0029L34.6598 3.20038L35.0451 3.77766L16 16.0029Z" fill="#97B8FF"/>
<path fill-rule="evenodd" clip-rule="evenodd" d="M16 16.003L34.9683 3.66248L35.3395 4.25L16 16.003Z" fill="#96B8FF"/>
<path fill-rule="evenodd" clip-rule="evenodd" d="M16 16.003L35.2653 4.13226L35.6224 4.72746L16 16.003Z" fill="#95B7FF"/>
<path fill-rule="evenodd" clip-rule="evenodd" d="M16 16.003L35.5507 4.6084L35.8925 5.21256L16 16.003Z" fill="#94B6FF"/>
<path fill-rule="evenodd" clip-rule="evenodd" d="M16 16.0029L35.8246 5.09222L36.151 5.70406L16 16.0029Z" fill="#93B6FF"/>
<path fill-rule="evenodd" clip-rule="evenodd" d="M16 16.0029L36.0858 5.58118L36.3981 6.20198L16 16.0029Z" fill="#92B5FF"/>
<path fill-rule="evenodd" clip-rule="evenodd" d="M16 16.0029L36.3366 6.07782L36.6323 6.70502L16 16.0029Z" fill="#91B4FF"/>
<path fill-rule="evenodd" clip-rule="evenodd" d="M16 16.0029L36.5734 6.57959L36.855 7.21447L16 16.0029Z" fill="#90B4FF"/>
<path fill-rule="evenodd" clip-rule="evenodd" d="M16 16.003L36.7987 7.08649L37.0637 7.72905L16 16.003Z" fill="#8FB3FF"/>
<path fill-rule="evenodd" clip-rule="evenodd" d="M16 16.0029L37.0112 7.59973L37.2608 8.24869L16 16.0029Z" fill="#8EB2FF"/>
<path fill-rule="evenodd" clip-rule="evenodd" d="M16 16.003L37.2109 8.11816L37.4451 8.77224L16 16.003Z" fill="#8DB2FF"/>
<path fill-rule="evenodd" clip-rule="evenodd" d="M16 16.0029L37.3978 8.64166L37.6154 9.30086L16 16.0029Z" fill="#8CB1FF"/>
<path fill-rule="evenodd" clip-rule="evenodd" d="M16 16.003L37.5718 9.16907L37.7741 9.83339L16 16.003Z" fill="#8BB0FF"/>
<path fill-rule="evenodd" clip-rule="evenodd" d="M16 16.003L37.7331 9.70026L37.9187 10.3697L16 16.003Z" fill="#8AB0FF"/>
<path fill-rule="evenodd" clip-rule="evenodd" d="M16 16.003L37.8816 10.2353L38.0506 10.9086L16 16.003Z" fill="#89AFFF"/>
<path fill-rule="evenodd" clip-rule="evenodd" d="M16 16.003L38.0173 10.7742L38.1683 11.4513L16 16.003Z" fill="#88AEFF"/>
<path fill-rule="evenodd" clip-rule="evenodd" d="M16 16.003L38.1376 11.3169L38.2733 11.9966L16 16.003Z" fill="#87AEFF"/>
<path fill-rule="evenodd" clip-rule="evenodd" d="M16 16.003L38.2464 11.8609L38.3654 12.5444L16 16.003Z" fill="#86ADFF"/>
<path fill-rule="evenodd" clip-rule="evenodd" d="M16 16.003L38.3411 12.4075L38.4435 13.0948L16 16.003Z" fill="#85ACFF"/>
<path fill-rule="evenodd" clip-rule="evenodd" d="M16 16.0029L38.423 12.9578L38.5075 13.6465L16 16.0029Z" fill="#84ACFF"/>
<path fill-rule="evenodd" clip-rule="evenodd" d="M16 16.003L38.4909 13.5082L38.5587 14.1994L16 16.003Z" fill="#83ABFF"/>
<path fill-rule="evenodd" clip-rule="evenodd" d="M16 16.003L38.5459 14.0612L38.5971 14.7537L16 16.003Z" fill="#82AAFF"/>
<path fill-rule="evenodd" clip-rule="evenodd" d="M16 16.0029L38.5869 14.6154L38.6202 15.3092L16 16.0029Z" fill="#81AAFF"/>
<path fill-rule="evenodd" clip-rule="evenodd" d="M16 16.003L38.6138 15.1697L38.6304 15.8634L16 16.003Z" fill="#80A9FF"/>
<path fill-rule="evenodd" clip-rule="evenodd" d="M16 16.003L38.6266 15.7252V16.419L16 16.003Z" fill="#7FA8FF"/>
<path fill-rule="evenodd" clip-rule="evenodd" d="M16 16.0029L38.6266 16.2807L38.6099 16.9744L16 16.0029Z" fill="#7EA7FF"/>
<path fill-rule="evenodd" clip-rule="evenodd" d="M16 16.0029L38.6138 16.8362L38.5792 17.5287L16 16.0029Z" fill="#7DA7FF"/>
<path fill-rule="evenodd" clip-rule="evenodd" d="M16 16.0029L38.5869 17.3905L38.5357 18.0829L16 16.0029Z" fill="#7CA6FF"/>
<path fill-rule="evenodd" clip-rule="evenodd" d="M16 16.0029L38.5459 17.9447L38.4781 18.6359L16 16.0029Z" fill="#7BA5FF"/>
<path fill-rule="evenodd" clip-rule="evenodd" d="M16 16.0029L38.4909 18.4964L38.4064 19.1863L16 16.0029Z" fill="#7AA5FF"/>
<path fill-rule="evenodd" clip-rule="evenodd" d="M16 16.0029L38.423 19.0481L38.3206 19.7354L16 16.0029Z" fill="#79A4FF"/>
<path fill-rule="evenodd" clip-rule="evenodd" d="M16 16.0029L38.3411 19.5972L38.2234 20.282L16 16.0029Z" fill="#78A3FF"/>
<path fill-rule="evenodd" clip-rule="evenodd" d="M16 16.0029L38.2464 20.145L38.1107 20.826L16 16.0029Z" fill="#77A3FF"/>
<path fill-rule="evenodd" clip-rule="evenodd" d="M16 16.0029L38.1376 20.689L37.9866 21.3674L16 16.0029Z" fill="#76A2FF"/>
<path fill-rule="evenodd" clip-rule="evenodd" d="M16 16.0029L38.0173 21.2317L37.8483 21.905L16 16.0029Z" fill="#75A1FF"/>
<path fill-rule="evenodd" clip-rule="evenodd" d="M16 16.0029L37.8816 21.7706L37.6973 22.4388L16 16.0029Z" fill="#74A1FF"/>
<path fill-rule="evenodd" clip-rule="evenodd" d="M16 16.0029L37.7331 22.3056L37.5322 22.97L16 16.0029Z" fill="#73A0FF"/>
<path fill-rule="evenodd" clip-rule="evenodd" d="M16 16.0029L37.5718 22.8368L37.3542 23.496L16 16.0029Z" fill="#729FFF"/>
<path fill-rule="evenodd" clip-rule="evenodd" d="M16 16.0029L37.3978 23.3642L37.1648 24.0183L16 16.0029Z" fill="#719FFF"/>
<path fill-rule="evenodd" clip-rule="evenodd" d="M16 16.0029L37.2109 23.8877L36.9613 24.5354L16 16.0029Z" fill="#709EFF"/>
<path fill-rule="evenodd" clip-rule="evenodd" d="M16 16.0029L37.0112 24.4049L36.745 25.0474L16 16.0029Z" fill="#6F9DFF"/>
<path fill-rule="evenodd" clip-rule="evenodd" d="M16 16.0029L36.7987 24.9181L36.5171 25.553L16 16.0029Z" fill="#6E9DFF"/>
<path fill-rule="evenodd" clip-rule="evenodd" d="M16 16.0029L36.5734 25.4263L36.2765 26.0535L16 16.0029Z" fill="#6D9CFF"/>
<path fill-rule="evenodd" clip-rule="evenodd" d="M16 16.0029L36.3366 25.9281L36.0243 26.5488L16 16.0029Z" fill="#6C9BFF"/>
<path fill-rule="evenodd" clip-rule="evenodd" d="M16 16.0029L36.0858 26.4247L35.7594 27.0365L16 16.0029Z" fill="#6B9BFF"/>
<path fill-rule="evenodd" clip-rule="evenodd" d="M16 16.0029L35.8246 26.9136L35.4829 27.5191L16 16.0029Z" fill="#6A9AFF"/>
<path fill-rule="evenodd" clip-rule="evenodd" d="M16 16.0029L35.5507 27.3975L35.1936 27.9927L16 16.0029Z" fill="#6999FF"/>
<path fill-rule="evenodd" clip-rule="evenodd" d="M16 16.0029L35.2653 27.8736L34.8941 28.4599L16 16.0029Z" fill="#6899FF"/>
<path fill-rule="evenodd" clip-rule="evenodd" d="M16 16.0029L34.9683 28.3434L34.5818 28.9207L16 16.0029Z" fill="#6798FF"/>
<path fill-rule="evenodd" clip-rule="evenodd" d="M16 16.0029L34.6598 28.8055L34.2605 29.3725L16 16.0029Z" fill="#6697FF"/>
<path fill-rule="evenodd" clip-rule="evenodd" d="M16 16.0029L34.3398 29.2586L33.9264 29.8167L16 16.0029Z" fill="#6597FF"/>
<path fill-rule="evenodd" clip-rule="evenodd" d="M16 16.0029L34.0096 29.7053L33.5821 30.2519L16 16.0029Z" fill="#6496FF"/>
<path fill-rule="evenodd" clip-rule="evenodd" d="M16 16.0029L33.6678 30.1431L33.2275 30.6794L16 16.0029Z" fill="#6395FF"/>
<path fill-rule="evenodd" clip-rule="evenodd" d="M16 16.0029L33.3146 30.5719L32.8614 31.098L16 16.0029Z" fill="#6294FF"/>
<path fill-rule="evenodd" clip-rule="evenodd" d="M16 16.0029L32.9523 30.993L32.4864 31.5076L16 16.0029Z" fill="#6194FF"/>
<path fill-rule="evenodd" clip-rule="evenodd" d="M16 16.0029L32.5798 31.4039L32.1011 31.9069L16 16.0029Z" fill="#6093FF"/>
<path fill-rule="evenodd" clip-rule="evenodd" d="M16 16.0029L32.1958 31.8058L31.7056 32.2973L16 16.0029Z" fill="#5F92FF"/>
<path fill-rule="evenodd" clip-rule="evenodd" d="M16 16.0029L31.8029 32.1988L31.3011 32.6775L16 16.0029Z" fill="#5E92FF"/>
<path fill-rule="evenodd" clip-rule="evenodd" d="M16 16.0029L31.401 32.5828L30.8864 33.0487L16 16.0029Z" fill="#5D91FF"/>
<path fill-rule="evenodd" clip-rule="evenodd" d="M16 16.0029L30.9901 32.9552L30.464 33.4084L16 16.0029Z" fill="#5C90FF"/>
<path fill-rule="evenodd" clip-rule="evenodd" d="M16 16.0029L30.569 33.3175L30.0326 33.7578L16 16.0029Z" fill="#5B90FF"/>
<path fill-rule="evenodd" clip-rule="evenodd" d="M16 16.0029L30.1402 33.6708L29.5923 34.097L16 16.0029Z" fill="#5A8FFF"/>
<path fill-rule="evenodd" clip-rule="evenodd" d="M16 16.0029L29.7024 34.0125L29.1443 34.426L16 16.0029Z" fill="#598EFF"/>
<path fill-rule="evenodd" clip-rule="evenodd" d="M16 16.0029L29.2557 34.3428L28.6886 34.7421L16 16.0029Z" fill="#588EFF"/>
<path fill-rule="evenodd" clip-rule="evenodd" d="M16 16.0029L28.8026 34.6628L28.224 35.048L16 16.0029Z" fill="#578DFF"/>
<path fill-rule="evenodd" clip-rule="evenodd" d="M16 16.0029L28.3405 34.9712L27.753 35.3424L16 16.0029Z" fill="#568CFF"/>
<path fill-rule="evenodd" clip-rule="evenodd" d="M16 16.0029L27.8707 35.2682L27.2755 35.6253L16 16.0029Z" fill="#558CFF"/>
<path fill-rule="evenodd" clip-rule="evenodd" d="M16 16.0029L27.3946 35.5536L26.7904 35.8954L16 16.0029Z" fill="#548BFF"/>
<path fill-rule="evenodd" clip-rule="evenodd" d="M16 16.0029L26.9107 35.8276L26.2989 36.154L16 16.0029Z" fill="#538AFF"/>
<path fill-rule="evenodd" clip-rule="evenodd" d="M16 16.0029L26.4218 36.0887L25.801 36.401L16 16.0029Z" fill="#528AFF"/>
<path fill-rule="evenodd" clip-rule="evenodd" d="M16 16.0029L25.9251 36.3396L25.2979 36.6352L16 16.0029Z" fill="#5189FF"/>
<path fill-rule="evenodd" clip-rule="evenodd" d="M16 16.0029L25.4234 36.5764L24.7885 36.858L16 16.0029Z" fill="#5088FF"/>
<path fill-rule="evenodd" clip-rule="evenodd" d="M16 16.0029L24.9152 36.8016L24.2739 37.0666L16 16.0029Z" fill="#4F88FF"/>
<path fill-rule="evenodd" clip-rule="evenodd" d="M16 16.0029L24.4019 37.0141L23.7542 37.2637L16 16.0029Z" fill="#4E87FF"/>
<path fill-rule="evenodd" clip-rule="evenodd" d="M16 16.0029L23.8848 37.2138L23.2307 37.448L16 16.0029Z" fill="#4D86FF"/>
<path fill-rule="evenodd" clip-rule="evenodd" d="M16 16.0029L23.3613 37.4007L22.7021 37.6183L16 16.0029Z" fill="#4C86FF"/>
<path fill-rule="evenodd" clip-rule="evenodd" d="M16 16.0029L22.8339 37.5748L22.1696 37.777L16 16.0029Z" fill="#4B85FF"/>
<path fill-rule="evenodd" clip-rule="evenodd" d="M16 16.0029L22.3027 37.736L21.6333 37.9216L16 16.0029Z" fill="#4A84FF"/>
<path fill-rule="evenodd" clip-rule="evenodd" d="M16 16.0029L21.7677 37.8845L21.0931 38.0535L16 16.0029Z" fill="#4984FF"/>
<path fill-rule="evenodd" clip-rule="evenodd" d="M16 16.0029L21.2288 38.0202L20.5517 38.1712L16 16.0029Z" fill="#4883FF"/>
<path fill-rule="evenodd" clip-rule="evenodd" d="M16 16.0029L20.6861 38.1405L20.0051 38.2762L16 16.0029Z" fill="#4782FF"/>
<path fill-rule="evenodd" clip-rule="evenodd" d="M16 16.0029L20.1421 38.2493L19.4586 38.3684L16 16.0029Z" fill="#4681FF"/>
<path fill-rule="evenodd" clip-rule="evenodd" d="M16 16.0029L19.5942 38.344L18.9082 38.4464L16 16.0029Z" fill="#4581FF"/>
<path fill-rule="evenodd" clip-rule="evenodd" d="M16 16.0029L19.0451 38.426L18.3565 38.5104L16 16.0029Z" fill="#4480FF"/>
<path fill-rule="evenodd" clip-rule="evenodd" d="M16 16.0029L18.4934 38.4938L17.8035 38.5617L16 16.0029Z" fill="#437FFF"/>
<path fill-rule="evenodd" clip-rule="evenodd" d="M16 16.0029L17.9418 38.5488L17.2493 38.6L16 16.0029Z" fill="#427FFF"/>
<path fill-rule="evenodd" clip-rule="evenodd" d="M16 16.0029L17.3875 38.5898L16.6938 38.6231L16 16.0029Z" fill="#417EFF"/>
<path fill-rule="evenodd" clip-rule="evenodd" d="M16 16.0029L16.8333 38.6167L16.1382 38.6333L16 16.0029Z" fill="#407DFF"/>
<path fill-rule="evenodd" clip-rule="evenodd" d="M16 16.0029L16.2777 38.6295H15.5827L16 16.0029Z" fill="#3F7DFF"/>
<path fill-rule="evenodd" clip-rule="evenodd" d="M16 16.0029L15.7222 38.6295L15.0284 38.6129L16 16.0029Z" fill="#3E7CFF"/>
<path fill-rule="evenodd" clip-rule="evenodd" d="M15.9999 16.0029L15.1667 38.6167L14.4729 38.5821L15.9999 16.0029Z" fill="#3D7BFF"/>
<path fill-rule="evenodd" clip-rule="evenodd" d="M16 16.0029L14.6125 38.5898L13.92 38.5386L16 16.0029Z" fill="#3C7BFF"/>
<path fill-rule="evenodd" clip-rule="evenodd" d="M16 16.0029L14.0582 38.5488L13.367 38.481L16 16.0029Z" fill="#3B7AFF"/>
<path fill-rule="evenodd" clip-rule="evenodd" d="M15.9999 16.0029L13.5052 38.4938L12.8166 38.4093L15.9999 16.0029Z" fill="#3A79FF"/>
<path fill-rule="evenodd" clip-rule="evenodd" d="M16 16.0029L12.9549 38.426L12.2675 38.3236L16 16.0029Z" fill="#3979FF"/>
<path fill-rule="evenodd" clip-rule="evenodd" d="M16 16.0029L12.4045 38.344L11.7209 38.2263L16 16.0029Z" fill="#3878FF"/>
<path fill-rule="evenodd" clip-rule="evenodd" d="M16 16.0029L11.8579 38.2493L11.1769 38.1136L16 16.0029Z" fill="#3777FF"/>
<path fill-rule="evenodd" clip-rule="evenodd" d="M16 16.0029L11.3139 38.1405L10.6355 37.9895L16 16.0029Z" fill="#3677FF"/>
<path fill-rule="evenodd" clip-rule="evenodd" d="M16 16.0029L10.7712 38.0202L10.0979 37.8512L16 16.0029Z" fill="#3576FF"/>
<path fill-rule="evenodd" clip-rule="evenodd" d="M16 16.0029L10.2323 37.8845L9.56287 37.7002L16 16.0029Z" fill="#3475FF"/>
<path fill-rule="evenodd" clip-rule="evenodd" d="M15.9999 16.0029L9.69722 37.736L9.0329 37.5351L15.9999 16.0029Z" fill="#3375FF"/>
<path fill-rule="evenodd" clip-rule="evenodd" d="M16 16.0029L9.16604 37.5748L8.50684 37.3572L16 16.0029Z" fill="#3274FF"/>
<path fill-rule="evenodd" clip-rule="evenodd" d="M16 16.0029L8.6387 37.4007L7.98462 37.1677L16 16.0029Z" fill="#3173FF"/>
<path fill-rule="evenodd" clip-rule="evenodd" d="M15.9999 16.0029L8.11515 37.2138L7.46747 36.9642L15.9999 16.0029Z" fill="#3073FF"/>
<path fill-rule="evenodd" clip-rule="evenodd" d="M16 16.0029L7.59679 37.0141L6.95551 36.7479L16 16.0029Z" fill="#2F72FF"/>
<path fill-rule="evenodd" clip-rule="evenodd" d="M16 16.0029L7.08349 36.8016L6.44989 36.5201L16 16.0029Z" fill="#2E71FF"/>
<path fill-rule="evenodd" clip-rule="evenodd" d="M16 16.0029L6.5766 36.5764L5.9494 36.2794L16 16.0029Z" fill="#2D71FF"/>
<path fill-rule="evenodd" clip-rule="evenodd" d="M16 16.0029L6.07484 36.3396L5.45404 36.0273L16 16.0029Z" fill="#2C70FF"/>
<path fill-rule="evenodd" clip-rule="evenodd" d="M16 16.0029L5.57821 36.0887L4.96637 35.7623L16 16.0029Z" fill="#2B6FFF"/>
<path fill-rule="evenodd" clip-rule="evenodd" d="M16 16.0029L5.08927 35.8276L4.48383 35.4858L16 16.0029Z" fill="#2A6EFF"/>
<path fill-rule="evenodd" clip-rule="evenodd" d="M16 16.0029L4.60539 35.5536L4.01019 35.1965L16 16.0029Z" fill="#296EFF"/>
<path fill-rule="evenodd" clip-rule="evenodd" d="M16 16.0029L4.12927 35.2682L3.54175 34.897L16 16.0029Z" fill="#286DFF"/>
<path fill-rule="evenodd" clip-rule="evenodd" d="M16 16.0029L3.65949 34.9712L3.08221 34.5847L16 16.0029Z" fill="#276CFF"/>
<path fill-rule="evenodd" clip-rule="evenodd" d="M16 16.0029L3.19741 34.6628L2.63037 34.2634L16 16.0029Z" fill="#266CFF"/>
<path fill-rule="evenodd" clip-rule="evenodd" d="M16 16.0029L2.7443 34.3428L2.18622 33.9293L16 16.0029Z" fill="#256BFF"/>
<path fill-rule="evenodd" clip-rule="evenodd" d="M16 16.0029L2.2976 34.0125L1.74976 33.585L16 16.0029Z" fill="#246AFF"/>
<path fill-rule="evenodd" clip-rule="evenodd" d="M16 16.0029L1.85981 33.6708L1.32349 33.2304L16 16.0029Z" fill="#236AFF"/>
<path fill-rule="evenodd" clip-rule="evenodd" d="M15.9999 16.0029L1.43099 33.3175L0.904907 32.8644L15.9999 16.0029Z" fill="#2269FF"/>
<path fill-rule="evenodd" clip-rule="evenodd" d="M15.9999 16.0029L1.00986 32.9552L0.4953 32.4893L15.9999 16.0029Z" fill="#2168FF"/>
<path fill-rule="evenodd" clip-rule="evenodd" d="M15.9999 16.0029L0.598987 32.5828L0.0959473 32.104L15.9999 16.0029Z" fill="#2068FF"/>
<path fill-rule="evenodd" clip-rule="evenodd" d="M16 16.0029L0.197086 32.1988L-0.294434 31.7085L16 16.0029Z" fill="#1F67FF"/>
<path fill-rule="evenodd" clip-rule="evenodd" d="M15.9999 16.0029L-0.197182 31.8058L-0.674622 31.304L15.9999 16.0029Z" fill="#1E66FF"/>
<path fill-rule="evenodd" clip-rule="evenodd" d="M16 16.0029L-0.579856 31.4039L-1.04578 30.8893L16 16.0029Z" fill="#1D66FF"/>
<path fill-rule="evenodd" clip-rule="evenodd" d="M16 16.0029L-0.952336 30.993L-1.40546 30.4669L16 16.0029Z" fill="#1C65FF"/>
<path fill-rule="evenodd" clip-rule="evenodd" d="M16 16.0029L-1.31456 30.5719L-1.75488 30.0356L16 16.0029Z" fill="#1B64FF"/>
<path fill-rule="evenodd" clip-rule="evenodd" d="M16 16.0029L-1.66788 30.1431L-2.09412 29.5952L16 16.0029Z" fill="#1A64FF"/>
<path fill-rule="evenodd" clip-rule="evenodd" d="M15.9999 16.0029L-2.00966 29.7053L-2.4231 29.1472L15.9999 16.0029Z" fill="#1963FF"/>
<path fill-rule="evenodd" clip-rule="evenodd" d="M15.9999 16.0029L-2.3399 29.2586L-2.73926 28.6916L15.9999 16.0029Z" fill="#1862FF"/>
<path fill-rule="evenodd" clip-rule="evenodd" d="M16 16.0029L-2.65989 28.8055L-3.04517 28.2269L16 16.0029Z" fill="#1762FF"/>
<path fill-rule="evenodd" clip-rule="evenodd" d="M16 16.0029L-2.96834 28.3434L-3.33954 27.7559L16 16.0029Z" fill="#1661FF"/>
<path fill-rule="evenodd" clip-rule="evenodd" d="M16 16.0029L-3.26532 27.8736L-3.62244 27.2784L16 16.0029Z" fill="#1560FF"/>
<path fill-rule="evenodd" clip-rule="evenodd" d="M16 16.0029L-3.55076 27.3975L-3.89252 26.7933L16 16.0029Z" fill="#1460FF"/>
<path fill-rule="evenodd" clip-rule="evenodd" d="M16 16.0029L-3.82466 26.9136L-4.15234 26.3018L16 16.0029Z" fill="#135FFF"/>
<path fill-rule="evenodd" clip-rule="evenodd" d="M15.9999 16.0029L-4.08709 26.4247L-4.39813 25.8039L15.9999 16.0029Z" fill="#125EFF"/>
<path fill-rule="evenodd" clip-rule="evenodd" d="M16 16.0029L-4.33664 25.9281L-4.63232 25.3008L16 16.0029Z" fill="#115EFF"/>
<path fill-rule="evenodd" clip-rule="evenodd" d="M15.9999 16.0029L-4.5735 25.4263L-4.8551 24.7914L15.9999 16.0029Z" fill="#105DFF"/>
<path fill-rule="evenodd" clip-rule="evenodd" d="M16 16.0029L-4.79876 24.9181L-5.065 24.2769L16 16.0029Z" fill="#0F5CFF"/>
<path fill-rule="evenodd" clip-rule="evenodd" d="M16 16.0029L-5.0112 24.4049L-5.2608 23.7572L16 16.0029Z" fill="#0E5BFF"/>
<path fill-rule="evenodd" clip-rule="evenodd" d="M16 16.0029L-5.21089 23.8877L-5.44513 23.2336L16 16.0029Z" fill="#0D5BFF"/>
<path fill-rule="evenodd" clip-rule="evenodd" d="M15.9999 16.0029L-5.3991 23.3642L-5.61542 22.705L15.9999 16.0029Z" fill="#0C5AFF"/>
<path fill-rule="evenodd" clip-rule="evenodd" d="M16 16.0029L-5.57315 22.8369L-5.77411 22.1725L16 16.0029Z" fill="#0B59FF"/>
<path fill-rule="evenodd" clip-rule="evenodd" d="M16 16.0029L-5.73444 22.3057L-5.91876 21.6362L16 16.0029Z" fill="#0A59FF"/>
<path fill-rule="evenodd" clip-rule="evenodd" d="M16 16.0029L-5.88164 21.7706L-6.0506 21.096L16 16.0029Z" fill="#0958FF"/>
<path fill-rule="evenodd" clip-rule="evenodd" d="M16 16.0029L-6.0173 21.2317L-6.16833 20.5546L16 16.0029Z" fill="#0857FF"/>
<path fill-rule="evenodd" clip-rule="evenodd" d="M16 16.0029L-6.13892 20.689L-6.27332 20.008L16 16.0029Z" fill="#0757FF"/>
<path fill-rule="evenodd" clip-rule="evenodd" d="M16 16.0029L-6.24644 20.145L-6.36548 19.4615L16 16.0029Z" fill="#0656FF"/>
<path fill-rule="evenodd" clip-rule="evenodd" d="M16 16.0029L-6.34114 19.5972L-6.44354 18.9111L16 16.0029Z" fill="#0555FF"/>
<path fill-rule="evenodd" clip-rule="evenodd" d="M16 16.0029L-6.42309 19.048L-6.50757 18.3594L16 16.0029Z" fill="#0455FF"/>
<path fill-rule="evenodd" clip-rule="evenodd" d="M15.9999 16.0029L-6.49094 18.4964L-6.55878 17.8065L15.9999 16.0029Z" fill="#0354FF"/>
<path fill-rule="evenodd" clip-rule="evenodd" d="M16 16.0029L-6.54597 17.9447L-6.59717 17.2522L16 16.0029Z" fill="#0253FF"/>
<path fill-rule="evenodd" clip-rule="evenodd" d="M16 16.0029L-6.5869 17.3905L-6.62018 16.6967L16 16.0029Z" fill="#0153FF"/>
<path fill-rule="evenodd" clip-rule="evenodd" d="M16 16.0029L-6.61379 16.8362L-6.63043 16.1412L16 16.0029Z" fill="#0052FF"/>
<path fill-rule="evenodd" clip-rule="evenodd" d="M16 16.003L-6.62787 16.2807V15.7252L16 16.003Z" fill="white"/>
</g>
</svg>
