<svg width="32" height="32" viewBox="0 0 32 32" fill="none" xmlns="http://www.w3.org/2000/svg">
<circle cx="16" cy="16" r="16" fill="black"/>
<path d="M22.3208 15.9999C22.3208 14.7142 21.9346 13.518 21.273 12.5184L23.2354 10.556L21.4706 8.7911L19.5135 10.7482C18.5086 10.0732 17.2998 9.6789 16.0008 9.6789C14.7151 9.6789 13.5189 10.0651 12.5193 10.7267L10.556 8.76428L8.7911 10.5291L10.7482 12.4862C10.0732 13.4911 9.6789 14.6999 9.6789 15.999C9.6789 17.2846 10.0651 18.4809 10.7267 19.4804L8.76428 21.4438L10.5291 23.2086L12.4862 21.2515C13.4911 21.9266 14.6999 22.3208 15.999 22.3208C17.2846 22.3208 18.4809 21.9346 19.4804 21.273L21.4438 23.2363L23.2086 21.4715L21.2515 19.5144C21.9266 18.5077 22.3208 17.2989 22.3208 15.9999ZM12.176 15.9999C12.176 13.8908 13.8917 12.1751 16.0008 12.1751C18.1098 12.1751 19.8255 13.8908 19.8255 15.9999C19.8255 18.1089 18.1098 19.8246 16.0008 19.8246C13.8917 19.8246 12.176 18.1089 12.176 15.9999Z" fill="white"/>
</svg>
