<svg xmlns="http://www.w3.org/2000/svg" width="61" height="61" viewBox="0 0 61 61" fill="none">
  <path d="M21 40.252C21 51.297 29.955 60.252 41 60.252C52.045 60.252 61 51.297 61 40.252H21Z" fill="black"/>
  <path d="M15.9998 50.2517C17.2798 50.2517 18.5598 49.7633 19.5348 48.7867C21.4881 46.8333 21.4881 43.6683 19.5348 41.715L9.53476 31.715C7.58142 29.7617 4.41643 29.7617 2.4631 31.715C0.509766 33.6683 0.509766 36.8333 2.4631 38.7867L12.4631 48.7867C13.4398 49.7633 14.7198 50.2517 15.9981 50.2517H15.9998Z" fill="black"/>
  <path d="M21 5.25195V35.252C21 38.0136 23.2383 40.252 26 40.252C28.7617 40.252 31 38.0136 31 35.252C31 38.0136 33.2383 40.252 36 40.252C38.7617 40.252 41 38.0136 41 35.252C41 38.0136 43.2383 40.252 46 40.252C48.7617 40.252 51 38.0136 51 35.252C51 38.0136 53.2383 40.252 56 40.252C58.7617 40.252 61 38.0136 61 35.252V5.25195C61 2.49029 58.7617 0.251953 56 0.251953C53.2383 0.251953 51 2.49029 51 5.25195V25.252C51 22.4903 48.7617 20.252 46 20.252C43.2383 20.252 41 22.4903 41 25.252C41 22.4903 38.7617 20.252 36 20.252C33.2383 20.252 31 22.4903 31 25.252V5.25195C31 2.49029 28.7617 0.251953 26 0.251953C23.2383 0.251953 21 2.49029 21 5.25195Z" fill="black"/>
</svg>