<svg xmlns="http://www.w3.org/2000/svg" width="99" height="20" viewBox="0 0 99 20" fill="none">
  <path d="M3.97909 8.65906C3.9565 8.65906 3.93483 8.65008 3.91886 8.63408C3.90289 8.61809 3.89392 8.5964 3.89392 8.57378C3.89366 8.20977 3.74908 7.86076 3.49195 7.60345C3.23482 7.34615 2.88618 7.20161 2.52267 7.20161C2.50008 7.20161 2.47842 7.19263 2.46245 7.17663C2.44647 7.16064 2.4375 7.13894 2.4375 7.11632C2.4375 7.09371 2.44647 7.07201 2.46245 7.05602C2.47842 7.04002 2.50008 7.03104 2.52267 7.03104C2.8858 7.03062 3.23394 6.88599 3.49071 6.62886C3.74748 6.37174 3.89192 6.02313 3.89234 5.6595C3.89234 5.63689 3.90131 5.61519 3.91728 5.5992C3.93326 5.5832 3.95492 5.57422 3.97751 5.57422C4.0001 5.57422 4.02176 5.5832 4.03773 5.5992C4.05371 5.61519 4.06268 5.63689 4.06268 5.6595C4.0631 6.02313 4.20753 6.37174 4.46431 6.62886C4.72108 6.88599 5.06922 7.03062 5.43235 7.03104C5.44353 7.03104 5.45461 7.03324 5.46494 7.03753C5.47527 7.04182 5.48466 7.0481 5.49257 7.05602C5.50048 7.06394 5.50675 7.07334 5.51103 7.08369C5.51531 7.09403 5.51752 7.10512 5.51752 7.11632C5.51752 7.12752 5.51531 7.13862 5.51103 7.14896C5.50675 7.15931 5.50048 7.16871 5.49257 7.17663C5.48466 7.18455 5.47527 7.19083 5.46494 7.19512C5.45461 7.19941 5.44353 7.20161 5.43235 7.20161C5.06922 7.20203 4.72108 7.34666 4.46431 7.60379C4.20753 7.86091 4.0631 8.20952 4.06268 8.57315C4.06285 8.5956 4.05417 8.61722 4.03852 8.63331C4.02287 8.64939 4.00151 8.65865 3.97909 8.65906Z" fill="white"/>
  <path d="M3.98455 5.66081C3.98455 6.04718 4.13783 6.41773 4.41067 6.69094C4.6835 6.96414 5.05355 7.11763 5.43939 7.11763C5.05355 7.11763 4.6835 7.27111 4.41067 7.54432C4.13783 7.81753 3.98455 8.18808 3.98455 8.57445C3.98455 8.18808 3.83128 7.81753 3.55844 7.54432C3.28561 7.27111 2.91556 7.11763 2.52972 7.11763C2.91556 7.11763 3.28561 6.96414 3.55844 6.69094C3.83128 6.41773 3.98455 6.04718 3.98455 5.66081ZM3.98455 5.49023C3.93938 5.49023 3.89605 5.50821 3.8641 5.54019C3.83216 5.57218 3.81421 5.61557 3.81421 5.66081C3.8138 6.00181 3.67833 6.32873 3.43753 6.56986C3.19673 6.81099 2.87026 6.94664 2.52972 6.94706C2.48454 6.94706 2.44121 6.96503 2.40927 6.99701C2.37732 7.029 2.35938 7.07239 2.35938 7.11763C2.35938 7.16287 2.37732 7.20625 2.40927 7.23824C2.44121 7.27023 2.48454 7.2882 2.52972 7.2882C2.87026 7.28862 3.19673 7.42427 3.43753 7.6654C3.67833 7.90652 3.8138 8.23344 3.81421 8.57445C3.81421 8.61969 3.83216 8.66307 3.8641 8.69506C3.89605 8.72705 3.93938 8.74502 3.98455 8.74502C4.02973 8.74502 4.07306 8.72705 4.105 8.69506C4.13695 8.66307 4.1549 8.61969 4.1549 8.57445C4.15523 8.23342 4.29067 7.90645 4.53148 7.6653C4.7723 7.42416 5.09882 7.28854 5.43939 7.2882C5.48457 7.2882 5.5279 7.27023 5.55984 7.23824C5.59179 7.20625 5.60973 7.16287 5.60973 7.11763C5.60973 7.07239 5.59179 7.029 5.55984 6.99701C5.5279 6.96503 5.48457 6.94706 5.43939 6.94706C5.09882 6.94672 4.7723 6.8111 4.53148 6.56995C4.29067 6.32881 4.15523 6.00184 4.1549 5.66081C4.1549 5.61557 4.13695 5.57218 4.105 5.54019C4.07306 5.50821 4.02973 5.49023 3.98455 5.49023Z" fill="white"/>
  <path d="M17.2431 3.17047C17.2205 3.17047 17.1989 3.16148 17.1829 3.14549C17.1669 3.12949 17.158 3.1078 17.158 3.08518C17.1575 2.72156 17.0131 2.37294 16.7563 2.11582C16.4996 1.8587 16.1514 1.71406 15.7883 1.71365C15.7657 1.71365 15.744 1.70466 15.7281 1.68867C15.7121 1.67267 15.7031 1.65098 15.7031 1.62836C15.7031 1.60574 15.7121 1.58405 15.7281 1.56805C15.744 1.55206 15.7657 1.54307 15.7883 1.54307C16.1515 1.54266 16.4997 1.39798 16.7564 1.14079C17.0132 0.883597 17.1576 0.534904 17.158 0.171224C17.158 0.160024 17.1602 0.148934 17.1644 0.138586C17.1687 0.128239 17.175 0.118837 17.1829 0.110918C17.1908 0.102998 17.2002 0.0967155 17.2105 0.0924294C17.2209 0.0881434 17.2319 0.0859375 17.2431 0.0859375C17.2543 0.0859375 17.2654 0.0881434 17.2757 0.0924294C17.2861 0.0967155 17.2954 0.102998 17.3034 0.110918C17.3113 0.118837 17.3175 0.128239 17.3218 0.138586C17.3261 0.148934 17.3283 0.160024 17.3283 0.171224C17.3286 0.534904 17.473 0.883597 17.7298 1.14079C17.9866 1.39798 18.3348 1.54266 18.698 1.54307C18.7206 1.54307 18.7422 1.55206 18.7582 1.56805C18.7742 1.58405 18.7831 1.60574 18.7831 1.62836C18.7831 1.65098 18.7742 1.67267 18.7582 1.68867C18.7422 1.70466 18.7206 1.71365 18.698 1.71365C18.3348 1.71406 17.9867 1.8587 17.7299 2.11582C17.4732 2.37294 17.3287 2.72156 17.3283 3.08518C17.3283 3.1078 17.3193 3.12949 17.3034 3.14549C17.2874 3.16148 17.2657 3.17047 17.2431 3.17047Z" fill="white"/>
  <path d="M17.2424 0.170573C17.2423 0.361912 17.2799 0.551385 17.353 0.728171C17.4261 0.904957 17.5333 1.06559 17.6684 1.2009C17.8035 1.33622 17.9639 1.44355 18.1404 1.51678C18.3169 1.59002 18.5061 1.62771 18.6972 1.62771C18.3114 1.62771 17.9413 1.78119 17.6685 2.0544C17.3956 2.32761 17.2424 2.69816 17.2424 3.08453C17.2424 2.89321 17.2048 2.70375 17.1317 2.52698C17.0586 2.35021 16.9514 2.1896 16.8163 2.05431C16.6812 1.91902 16.5208 1.81172 16.3443 1.73852C16.1678 1.66532 15.9786 1.62767 15.7875 1.62771C15.9786 1.62771 16.1678 1.59002 16.3443 1.51678C16.5209 1.44355 16.6813 1.33622 16.8164 1.2009C16.9515 1.06559 17.0586 0.904957 17.1317 0.728171C17.2048 0.551385 17.2424 0.361912 17.2424 0.170573ZM17.2424 0C17.1972 0 17.1539 0.0179709 17.1219 0.0499596C17.09 0.0819482 17.072 0.125334 17.072 0.170573C17.0717 0.511633 16.9363 0.838633 16.6955 1.07983C16.4546 1.32103 16.1281 1.45672 15.7875 1.45714C15.7424 1.45714 15.699 1.47511 15.6671 1.5071C15.6351 1.53908 15.6172 1.58247 15.6172 1.62771C15.6172 1.67295 15.6351 1.71633 15.6671 1.74832C15.699 1.78031 15.7424 1.79828 15.7875 1.79828C16.1284 1.7982 16.4553 1.93364 16.6965 2.17483C16.9376 2.41602 17.0733 2.74322 17.0736 3.08453C17.0736 3.12977 17.0915 3.17315 17.1235 3.20514C17.1554 3.23713 17.1988 3.2551 17.2439 3.2551C17.2891 3.2551 17.3324 3.23713 17.3644 3.20514C17.3963 3.17315 17.4143 3.12977 17.4143 3.08453C17.415 2.74405 17.5504 2.41772 17.7909 2.17696C18.0313 1.9362 18.3572 1.80061 18.6972 1.79986C18.7424 1.79986 18.7857 1.78189 18.8177 1.7499C18.8496 1.71791 18.8675 1.67453 18.8675 1.62929C18.8675 1.58405 18.8496 1.54066 18.8177 1.50867C18.7857 1.47669 18.7424 1.45872 18.6972 1.45872C18.3566 1.4583 18.0301 1.3226 17.7893 1.08141C17.5485 0.840213 17.413 0.513213 17.4127 0.172152C17.4127 0.126914 17.3948 0.0835277 17.3628 0.051539C17.3309 0.0195504 17.2875 0.00157948 17.2424 0.00157948V0Z" fill="white"/>
  <path d="M31.75 19.982L21.3437 5.04737L18.3439 7.30841L22.0078 11.9082L11.8983 1.88672L0.5 19.982H31.75Z" fill="white"/>
  <path d="M11.6328 13.8848C11.6328 13.8848 12.3407 15.7971 11.8602 19.9812H13.8996C13.8996 19.9812 15.0472 16.1717 14.698 15.4423C14.3488 14.713 11.6328 13.8848 11.6328 13.8848Z" fill="url(#paint0_linear_168_69066)"/>
  <path d="M22.6624 16.3889C21.6104 12.9247 18.4525 12.322 17.1421 12.322C16.5384 12.322 14.3085 11.3618 13.4934 10.9445C13.3788 10.886 13.2227 10.5465 13.27 10.4271L13.5012 10.0512C13.5643 9.79059 13.6123 9.50472 13.3937 9.34962L13.0117 9.1601C12.9558 9.13193 12.8928 9.12136 12.8309 9.12976C12.7689 9.13816 12.711 9.16515 12.6647 9.20716L12.3013 9.53536C12.3013 9.53536 10.4767 9.13167 10.1603 9.17937C9.97518 9.20748 9.80232 9.51546 9.69065 9.76658C9.66 9.83157 9.6067 9.88311 9.54076 9.9115C9.47482 9.93989 9.4008 9.94317 9.33262 9.92073C8.68248 9.69266 8.41782 9.76689 8.41782 9.76689C8.41782 9.76689 7.84686 10.5102 8.41782 11.0819C12.8388 15.6305 14.3375 14.723 14.898 19.9994H16.9169L17.8576 18.0094L19.4572 18.0236L20.2202 19.9997H23.2028L22.6624 16.3889ZM10.3458 10.1523C10.306 10.1523 10.267 10.1404 10.2338 10.1182C10.2007 10.0961 10.1749 10.0645 10.1596 10.0277C10.1443 9.99078 10.1404 9.9502 10.1481 9.91104C10.1559 9.87189 10.1751 9.83592 10.2033 9.80769C10.2315 9.77947 10.2674 9.76024 10.3065 9.75245C10.3456 9.74466 10.3861 9.74866 10.423 9.76394C10.4598 9.77922 10.4913 9.80509 10.5134 9.83828C10.5356 9.87147 10.5474 9.9105 10.5474 9.95042C10.5474 10.004 10.5262 10.0553 10.4884 10.0931C10.4506 10.131 10.3993 10.1523 10.3458 10.1523Z" fill="#3083DC"/>
</svg>