<svg xmlns="http://www.w3.org/2000/svg" width="88" height="88" viewBox="0 0 88 88" fill="none">
  <path d="M87.0112 44.4944C87.0112 50.2076 85.8859 55.8649 83.6995 61.1433C81.5132 66.4216 78.3086 71.2176 74.2687 75.2575C70.2288 79.2974 65.4328 82.502 60.1545 84.6883C54.8761 86.8747 49.2188 88 43.5056 88C37.7924 88 32.1351 86.8747 26.8567 84.6883C21.5784 82.502 16.7824 79.2974 12.7425 75.2575C8.70262 71.2176 5.49802 66.4216 3.31166 61.1433C1.1253 55.8649 -9.98098e-07 50.2076 0 44.4944L43.5056 44.4944L87.0112 44.4944Z" fill="black"/>
  <circle cx="43.5067" cy="21.7528" r="21.7528" fill="black"/>
</svg>