<svg width="108" height="108" viewBox="0 0 108 108" fill="none" xmlns="http://www.w3.org/2000/svg">
<path d="M90 -1.57361e-06C99.9411 -2.44269e-06 108 8.05887 108 18C108 27.9411 99.9411 36 90 36C80.0589 36 72 27.9411 72 18C72 8.05887 80.0589 -7.04529e-07 90 -1.57361e-06Z" fill="#F289E6"/>
<path d="M54 -1.57361e-06C63.9411 -2.44269e-06 72 8.05887 72 18C72 27.9411 63.9411 36 54 36C44.0589 36 36 27.9411 36 18C36 8.05887 44.0589 -7.04529e-07 54 -1.57361e-06Z" fill="#F289E6"/>
<path d="M54 36.001C63.9411 36.001 72 44.0598 72 54.001C72 63.9421 63.9411 72.001 54 72.001C44.0589 72.001 36 63.9421 36 54.001C36 44.0599 44.0589 36.001 54 36.001Z" fill="#F289E6"/>
<path d="M18 -1.57361e-06C27.9411 -2.44269e-06 36 8.05887 36 18C36 27.9411 27.9411 36 18 36C8.05888 36 -7.04529e-07 27.9411 -1.57361e-06 18C-2.44269e-06 8.05887 8.05887 -7.04529e-07 18 -1.57361e-06Z" fill="#F289E6"/>
<path d="M18 36.001C27.9411 36.001 36 44.0598 36 54.001C36 63.9421 27.9411 72.001 18 72.001C8.05888 72.001 -7.04529e-07 63.9421 -1.57361e-06 54.001C-2.44269e-06 44.0599 8.05887 36.001 18 36.001Z" fill="#F289E6"/>
<path d="M18 72.0005C27.9411 72.0005 36 80.0594 36 90.0005C36 99.9416 27.9411 108 18 108C8.05888 108 -7.04529e-07 99.9416 -1.57361e-06 90.0005C-2.44269e-06 80.0594 8.05887 72.0005 18 72.0005Z" fill="#F289E6"/>
</svg>
