<svg width="17" height="17" viewBox="0 0 17 17" fill="none" xmlns="http://www.w3.org/2000/svg">
<g opacity="0.8" clip-path="url(#clip0_15374_183867)">
<path fill-rule="evenodd" clip-rule="evenodd" d="M8.49984 2.13118C5.18613 2.13118 2.49984 4.81748 2.49984 8.13118C2.49984 11.4449 5.18613 14.1312 8.49984 14.1312C11.8135 14.1312 14.4998 11.4449 14.4998 8.13118C14.4998 4.81748 11.8135 2.13118 8.49984 2.13118ZM1.1665 8.13118C1.1665 4.0811 4.44975 0.797852 8.49984 0.797852C12.5499 0.797852 15.8332 4.0811 15.8332 8.13118C15.8332 12.1813 12.5499 15.4645 8.49984 15.4645C4.44975 15.4645 1.1665 12.1813 1.1665 8.13118Z" fill="white"/>
<path fill-rule="evenodd" clip-rule="evenodd" d="M8.67199 5.48095C8.36165 5.42772 8.04247 5.48604 7.77101 5.64558C7.49954 5.80512 7.2933 6.0556 7.1888 6.35263C7.06662 6.69996 6.68601 6.88247 6.33869 6.76029C5.99136 6.63811 5.80884 6.2575 5.93103 5.91017C6.14001 5.3161 6.55249 4.81516 7.09543 4.49607C7.63836 4.17698 8.27671 4.06034 8.8974 4.16681C9.5181 4.27327 10.0811 4.59597 10.4866 5.07775C10.8921 5.55944 11.1141 6.16906 11.1132 6.79868C11.1129 7.81892 10.3565 8.49266 9.81638 8.85277C9.52596 9.04638 9.24028 9.18875 9.02984 9.28228C8.92367 9.32946 8.83427 9.36527 8.76985 9.38981C8.73758 9.4021 8.71142 9.41163 8.69238 9.4184L8.66923 9.42651L8.66185 9.42903L8.65926 9.4299L8.65823 9.43025L8.65779 9.43039C8.65759 9.43046 8.6574 9.43053 8.44658 8.79807L8.6574 9.43053C8.3081 9.54696 7.93056 9.35818 7.81413 9.00889C7.69777 8.65983 7.88622 8.28255 8.23506 8.16585C8.2351 8.16584 8.23513 8.16583 8.23516 8.16582L8.23511 8.16583L8.23506 8.16585L8.23482 8.16593L8.23541 8.16572L8.2457 8.16212C8.25596 8.15847 8.27277 8.15237 8.29519 8.14383C8.34014 8.1267 8.40699 8.10001 8.48832 8.06386C8.65288 7.99073 8.8672 7.88309 9.07678 7.74337C9.53651 7.43688 9.77991 7.11083 9.77991 6.79807L9.77991 6.79708C9.78038 6.4822 9.6694 6.17731 9.46662 5.93642C9.26383 5.69553 8.98234 5.53418 8.67199 5.48095ZM8.23482 8.16593C8.23452 8.16603 8.23433 8.16609 8.23425 8.16612L8.23463 8.16599L8.23482 8.16593ZM11.1132 6.79868C11.1132 6.79881 11.1132 6.79894 11.1132 6.79906L10.4466 6.79807H11.1132C11.1132 6.79827 11.1132 6.79848 11.1132 6.79868Z" fill="white"/>
<path fill-rule="evenodd" clip-rule="evenodd" d="M7.8335 11.4645C7.8335 11.0963 8.13197 10.7979 8.50016 10.7979H8.50683C8.87502 10.7979 9.1735 11.0963 9.1735 11.4645C9.1735 11.8327 8.87502 12.1312 8.50683 12.1312H8.50016C8.13197 12.1312 7.8335 11.8327 7.8335 11.4645Z" fill="white"/>
</g>
<defs>
<clipPath id="clip0_15374_183867">
<rect width="16" height="16" fill="white" transform="translate(0.5 0.131348)"/>
</clipPath>
</defs>
</svg>
