<svg width="1080" height="1080" viewBox="0 0 1080 1080" fill="none" xmlns="http://www.w3.org/2000/svg">
<rect width="1080" height="1080" rx="56" fill="white"/>
<path d="M816.94 406.754L685.715 348.997L552.705 406.754L685.715 466.345L681.252 817.472C681.252 838.008 664.886 868.506 650.901 874.312C771.592 874.312 812.774 774.383 816.94 723.96V406.754Z" fill="black"/>
<path d="M552.508 283.172L421.283 225.516L288.273 283.172L421.283 342.659V662.058C421.283 700.496 440.03 750.831 507.874 750.831C535.547 750.831 552.508 739.849 552.508 723.376C552.508 706.902 552.508 599.826 552.508 599.826V283.172Z" fill="black"/>
<path fill-rule="evenodd" clip-rule="evenodd" d="M302.668 244.111L288.274 103L273.88 244.111L204.435 195L253.523 264.474L81.5 278.872L253.523 293.271L220.5 346.679L273.88 313.634L288 547.464V283L329.694 301.727L323.025 293.271L445 278.872L323.025 264.474L393.125 174L302.668 244.111Z" fill="black"/>
</svg>
